Coordinates
version=1
nRows=10
nColumns=63
inDegrees=yes

Units are S.I. units (second, meters, Newtons, ...)
If the header above contains a line with 'inDegrees', this indicates whether rotational values are in degrees (yes) or radians (no).

endheader
time	pelvis_tilt	pelvis_list	pelvis_rotation	pelvis_tx	pelvis_ty	pelvis_tz	hip_flexion_r	hip_adduction_r	hip_rotation_r	knee_angle_r	knee_angle_r_beta	ankle_angle_r	subtalar_angle_r	mtp_angle_r	hip_flexion_l	hip_adduction_l	hip_rotation_l	knee_angle_l	knee_angle_l_beta	ankle_angle_l	subtalar_angle_l	mtp_angle_l	L5_S1_Flex_Ext	L5_S1_Lat_Bending	L5_S1_axial_rotation	L4_L5_Flex_Ext	L4_L5_Lat_Bending	L4_L5_axial_rotation	L3_L4_Flex_Ext	L3_L4_Lat_Bending	L3_L4_axial_rotation	L2_L3_Flex_Ext	L2_L3_Lat_Bending	L2_L3_axial_rotation	L1_L2_Flex_Ext	L1_L2_Lat_Bending	L1_L2_axial_rotation	L1_T12_Flex_Ext	L1_T12_Lat_Bending	L1_T12_axial_rotation	Abs_r3	Abs_r2	Abs_r1	Abs_t1	Abs_t2	neck_flexion	neck_bending	neck_rotation	arm_flex_r	arm_add_r	arm_rot_r	elbow_flex_r	pro_sup_r	wrist_flex_r	wrist_dev_r	arm_flex_l	arm_add_l	arm_rot_l	elbow_flex_l	pro_sup_l	wrist_flex_l	wrist_dev_l
      1.65000000	      2.14885038	     -3.01863995	     95.86032824	      0.20587506	      0.88949946	      0.57838403	     -3.60466765	     -0.20793610	     -8.86628035	      0.90752566	      0.01583931	     25.92357098	      4.88154177	      0.00000000	     -0.45186323	      0.46751118	     -0.67045319	      3.11184538	      0.05431195	     27.29092398	     10.21153920	      0.00000000	      0.07073094	     -0.54710351	     -0.70897298	      0.13135443	     -0.72764767	     -0.75328379	      0.11620386	     -1.33022747	     -0.75328379	      0.08083839	     -1.33022747	     -0.62035136	      0.06568075	     -1.11565347	     -0.57604055	      0.04041566	     -0.84746333	     -0.53172973	      0.50522404	     -6.18894430	     -3.94309502	      0.00000000	      0.00000000	     24.77911035	      6.23895173	     -8.71739388	     23.82388440	      4.18086439	    155.32456554	      0.65415440	      1.45506720	    -10.13890758	    -21.85732288	     22.78886674	     -4.86360073	     68.69636219	     34.25099357	     44.68176371	      1.85656291	      7.61484231
      1.67500000	      1.95441106	     -2.72332404	     95.77097405	      0.20613366	      0.88988603	      0.57745794	     -4.01787411	     -0.38830528	     -9.51927385	      0.97097904	      0.01694678	     26.10891401	      5.74170762	      0.00000000	     -0.91078825	      0.60751999	     -0.46618477	      3.12963298	      0.05462240	     27.05720100	      9.89636105	      0.00000000	      0.05208561	     -0.58296976	     -0.59762122	      0.09672819	     -0.77534978	     -0.63497255	      0.08557145	     -1.41743266	     -0.63497255	      0.05952864	     -1.41743266	     -0.52291857	      0.04836670	     -1.18879193	     -0.48556724	      0.02976172	     -0.90302015	     -0.44821592	      0.37204231	     -6.59467047	     -3.32378995	      0.00000000	      0.00000000	     24.33092645	      6.15475521	     -9.82218540	     23.41543319	      4.11728643	    151.95341823	      0.73665481	      1.40216346	     -8.10400531	    -21.98330317	     22.46617718	     -4.64381516	     68.05906049	     34.11059614	     45.42639931	      1.73531472	      7.95185167
      1.70000000	      1.81376551	     -2.57671219	     95.78008144	      0.20634179	      0.89016400	      0.57704468	     -4.25836357	     -0.50911134	    -10.07316471	      0.99767820	      0.01741277	     26.08036950	      6.19261946	      0.00000000	     -1.15275193	      0.69556271	     -0.26719906	      3.15284419	      0.05502751	     26.79708599	      9.89604993	      0.00000000	      0.03734203	     -0.60770797	     -0.55162438	      0.06934788	     -0.80825160	     -0.58610090	      0.06134922	     -1.47758115	     -0.58610090	      0.04267820	     -1.47758115	     -0.48267133	      0.03467581	     -1.23923809	     -0.44819481	      0.02133724	     -0.94133964	     -0.41371829	      0.26673038	     -6.87451408	     -3.06796932	      0.00000000	      0.00000000	     24.05393154	      6.57786471	     -9.98199096	     23.14955558	      4.17378866	    149.47026509	      0.90316766	      1.52389559	     -7.90023525	    -22.15911993	     22.22253426	     -4.67977144	     67.62448281	     34.22914599	     45.68861590	      1.52073075	      8.00308805
      1.72500000	      1.75203331	     -2.61323065	     95.38274493	      0.20660376	      0.89030551	      0.57688235	     -4.24146392	     -0.60234505	     -9.30418920	      0.96506942	      0.01684364	     25.62690408	      5.29088195	      0.00000000	     -1.11922961	      0.75100546	     -1.13493684	      3.34771455	      0.05842864	     26.82963930	     10.70812058	      0.00000000	      0.04496232	     -0.61110639	     -0.49243643	      0.08349952	     -0.81277150	     -0.52321370	      0.07386859	     -1.48584408	     -0.52321370	      0.05138743	     -1.48584408	     -0.43088187	      0.04175201	     -1.24616815	     -0.40010460	      0.02569147	     -0.94660380	     -0.36932732	      0.32116134	     -6.91295771	     -2.73878367	      0.00000000	      0.00000000	     23.94196268	      6.47242518	     -9.96958280	     23.17793884	      4.18222889	    149.05873154	      0.87382830	      1.34605803	     -6.20923025	    -21.84069272	     21.95134577	     -4.72515842	     66.80476478	     34.31654451	     46.71788213	      1.55996870	      7.88681220
      1.75000000	      1.67932110	     -2.64487963	     95.35333520	      0.20655206	      0.89054100	      0.57679021	     -4.24482530	     -0.67309257	     -9.76773990	      0.95141753	      0.01660537	     25.35615176	      5.44216256	      0.00000000	     -1.15941341	      0.83526060	     -0.68806632	      3.21280925	      0.05607410	     26.63476404	     10.51188193	      0.00000000	      0.04836343	     -0.61585546	     -0.49669695	      0.08981573	     -0.81908777	     -0.52774051	      0.07945628	     -1.49739097	     -0.52774051	      0.05527456	     -1.49739097	     -0.43460983	      0.04491028	     -1.25585246	     -0.40356627	      0.02763486	     -0.95396011	     -0.37252271	      0.34545514	     -6.96668017	     -2.76247945	      0.00000000	      0.00000000	     23.91986715	      6.30983912	     -9.89180400	     23.17410278	      4.25943117	    148.47446281	      0.90596383	      1.38108746	     -5.79316812	    -21.75893363	     22.06079579	     -4.95789714	     67.08105208	     34.56063637	     46.63209137	      1.64475062	      7.84746686
      1.77500000	      1.69531931	     -2.64474810	     95.61960813	      0.20596005	      0.89080150	      0.57666909	     -4.30494997	     -0.63223743	    -10.17247986	      0.93510854	      0.01632072	     24.99782406	      5.14876205	      0.00000000	     -1.14427314	      0.83583482	     -0.17295474	      3.13763392	      0.05476204	     26.65737353	     10.53695595	      0.00000000	      0.05259385	     -0.60798157	     -0.55438480	      0.09767204	     -0.80861548	     -0.58903385	      0.08640644	     -1.47824638	     -0.58903385	      0.06010951	     -1.47824638	     -0.48508670	      0.04883865	     -1.23979601	     -0.45043765	      0.03005213	     -0.94176345	     -0.41578860	      0.37567261	     -6.87760909	     -3.08332194	      0.00000000	      0.00000000	     24.06732827	      6.13414664	     -9.71818671	     23.21524361	      4.32782058	    150.88036544	      0.77184497	      1.35400961	     -7.62956212	    -21.53307043	     22.40399994	     -5.20367504	     68.14960957	     34.74809510	     45.80174639	      1.91043815	      7.55370486
      1.80000000	      1.69720915	     -2.56131356	     95.99584698	      0.20533983	      0.89117055	      0.57613306	     -4.49137255	     -0.57241430	    -10.77076585	      0.94583834	      0.01650799	     24.61050184	      4.93267182	      0.00000000	     -1.33591835	      0.85822386	      1.48635675	      2.79636439	      0.04880577	     26.43767199	      9.22427275	      0.00000000	      0.05296990	     -0.60532639	     -0.61806163	      0.09837040	     -0.80508409	     -0.65669049	      0.08702425	     -1.47179058	     -0.65669049	      0.06053930	     -1.47179058	     -0.54080393	      0.04918785	     -1.23438157	     -0.50217508	      0.03026700	     -0.93765057	     -0.46354623	      0.37835868	     -6.84757315	     -3.43747339	      0.00000000	      0.00000000	     24.26935356	      5.73794475	     -9.76961370	     23.23039525	      4.39115226	    153.15980878	      0.67111005	      1.40613589	     -9.48028164	    -21.51088897	     22.68551016	     -5.46131211	     69.08678200	     34.99575584	     45.43683491	      2.20614723	      7.44104372
      1.82500000	      1.71221537	     -2.37910126	     96.24459671	      0.20501888	      0.89172039	      0.57513708	     -4.77493690	     -0.48339720	    -11.48269260	      1.00744990	      0.01758332	     24.31407599	      5.15350764	      0.00000000	     -1.65987153	      0.81569639	      2.32581071	      2.48223070	      0.04332310	     26.33339127	      8.71254574	      0.00000000	      0.04997148	     -0.60653923	     -0.66976228	      0.09280203	     -0.80669717	     -0.71162242	      0.08209814	     -1.47473947	     -0.71162242	      0.05711240	     -1.47473947	     -0.58604199	      0.04640352	     -1.23685479	     -0.54418185	      0.02855370	     -0.93952926	     -0.50232171	      0.35694128	     -6.86129303	     -3.72501685	      0.00000000	      0.00000000	     24.43961583	      5.55907103	     -9.70204723	     23.20121555	      4.51603917	    156.23109032	      0.57211020	      1.50734163	    -11.82960645	    -21.54205945	     22.82634716	     -5.74680567	     69.69146650	     35.21813962	     45.78460065	      2.37304995	      7.46488447
      1.85000000	      1.72784914	     -2.26384832	     96.21715896	      0.20540644	      0.89236259	      0.57403286	     -4.91090517	     -0.40489830	    -11.60252609	      1.16714119	      0.02037046	     24.00925916	      5.13025903	      0.00000000	     -1.82096145	      0.74194213	      2.30947444	      2.44320418	      0.04264196	     26.39402698	      8.69452494	      0.00000000	      0.06658853	     -0.61556113	     -0.67153728	      0.12366155	     -0.81869630	     -0.71350836	      0.10939829	     -1.49667532	     -0.71350836	      0.07610403	     -1.49667532	     -0.58759512	      0.06183411	     -1.25525225	     -0.54562404	      0.03804868	     -0.95350419	     -0.50365296	      0.47563519	     -6.96335058	     -3.73488888	      0.00000000	      0.00000000	     24.53049419	      5.49976873	     -9.67337861	     23.05324775	      4.78091651	    156.38015581	      0.56643210	      1.60767486	    -11.83203458	    -21.68800806	     22.70742408	     -5.95049991	     69.83223636	     35.17605036	     45.86990972	      2.37251764	      7.49742586
      1.87500000	      1.78155804	     -1.95463326	     96.21094980	      0.20569999	      0.89308601	      0.57328008	     -5.14402292	     -0.29890225	    -12.94456680	      1.49716368	      0.02613044	     23.99557573	      6.60217122	      0.00000000	     -2.33227494	      0.61834937	      2.34256086	      2.00026416	      0.03491120	     26.26047938	      8.65848512	      0.00000000	      0.04360558	     -0.61924303	     -0.71565336	      0.08097993	     -0.82359323	     -0.76038170	      0.07163961	     -1.50562750	     -0.76038170	      0.04983682	     -1.50562750	     -0.62619669	      0.04049214	     -1.26276039	     -0.58146836	      0.02491623	     -0.95920745	     -0.53674002	      0.31147032	     -7.00500100	     -3.98024932	      0.00000000	      0.00000000	     24.56791353	      5.54972425	     -9.68374201	     23.23268693	      5.10499111	    161.09350082	      0.46038195	      1.68371854	    -14.68842008	    -22.13778533	     22.78474264	     -6.49903406	     70.80543090	     35.40250782	     48.05591620	      2.06733688	      6.25895398
